<?xml version="1.0" encoding="UTF-8"?>
<svg xmlns="http://www.w3.org/2000/svg" viewBox="0 0 598 120">
  <defs>
    <linearGradient id="g" x1="12" y1="0" x2="586" y2="0" gradientUnits="userSpaceOnUse" color-interpolation="linearRGB">
      <stop offset="0%" stop-color="#d5f6f0"/>
      <stop offset="6%" stop-color="#d3f3f3"/>
      <stop offset="20%" stop-color="#d2f0f6"/>
      <stop offset="39%" stop-color="#d2edf7"/>
      <stop offset="61%" stop-color="#d3e9f7"/>
      <stop offset="80%" stop-color="#d5e5f6"/>
      <stop offset="94%" stop-color="#d8e2f4"/>
      <stop offset="100%" stop-color="#dadef1"/>
    </linearGradient>
    <linearGradient id="gs" x1="12" y1="0" x2="586" y2="0" gradientUnits="userSpaceOnUse" color-interpolation="linearRGB">
      <stop offset="0%" stop-color="#6f807d"/>
      <stop offset="6%" stop-color="#6e7e7f"/>
      <stop offset="20%" stop-color="#6d7d80"/>
      <stop offset="39%" stop-color="#6d7b80"/>
      <stop offset="61%" stop-color="#6e7980"/>
      <stop offset="80%" stop-color="#6f7780"/>
      <stop offset="94%" stop-color="#70757f"/>
      <stop offset="100%" stop-color="#71737d"/>
    </linearGradient>
  </defs>
  <g fill="url(#g)">
    <rect x="33" y="12" width="7" height="12"/>
    <rect x="40" y="12" width="7" height="12"/>
    <rect x="47" y="12" width="7" height="12"/>
    <rect x="54" y="12" width="7" height="12"/>
    <rect x="61" y="12" width="7" height="12"/>
    <rect x="68" y="12" width="7" height="12"/>
    <rect x="75" y="12" width="7" height="12"/>
    <rect x="82" y="12" width="7" height="12"/>
    <rect x="89" y="12" width="7" height="12"/>
    <rect x="117" y="12" width="7" height="12"/>
    <rect x="124" y="12" width="7" height="12"/>
    <rect x="131" y="12" width="7" height="12"/>
    <rect x="138" y="12" width="7" height="12"/>
    <rect x="145" y="12" width="7" height="12"/>
    <rect x="341" y="12" width="7" height="12"/>
    <rect x="348" y="12" width="7" height="12"/>
    <rect x="355" y="12" width="7" height="12"/>
    <rect x="362" y="12" width="7" height="12"/>
    <rect x="369" y="12" width="7" height="12"/>
    <rect x="432" y="12" width="7" height="12"/>
    <rect x="439" y="12" width="7" height="12"/>
    <rect x="446" y="12" width="7" height="12"/>
    <rect x="453" y="12" width="7" height="12"/>
    <rect x="460" y="12" width="7" height="12"/>
    <rect x="467" y="12" width="7" height="12"/>
    <rect x="474" y="12" width="7" height="12"/>
    <rect x="481" y="12" width="7" height="12"/>
    <rect x="488" y="12" width="7" height="12"/>
    <rect x="495" y="12" width="7" height="12"/>
    <rect x="502" y="12" width="7" height="12"/>
    <rect x="26" y="24" width="7" height="12"/>
    <rect x="33" y="24" width="7" height="12"/>
    <rect x="40" y="24" width="7" height="12"/>
    <rect x="47" y="24" width="7" height="12"/>
    <rect x="54" y="24" width="7" height="12"/>
    <rect x="61" y="24" width="7" height="12"/>
    <rect x="68" y="24" width="7" height="12"/>
    <rect x="75" y="24" width="7" height="12"/>
    <rect x="82" y="24" width="7" height="12"/>
    <rect x="89" y="24" width="7" height="12"/>
    <rect x="96" y="24" width="7" height="12"/>
    <rect x="110" y="24" width="7" height="12"/>
    <rect x="117" y="24" width="7" height="12"/>
    <rect x="124" y="24" width="7" height="12"/>
    <rect x="131" y="24" width="7" height="12"/>
    <rect x="138" y="24" width="7" height="12"/>
    <rect x="334" y="24" width="7" height="12"/>
    <rect x="341" y="24" width="7" height="12"/>
    <rect x="348" y="24" width="7" height="12"/>
    <rect x="355" y="24" width="7" height="12"/>
    <rect x="362" y="24" width="7" height="12"/>
    <rect x="425" y="24" width="7" height="12"/>
    <rect x="432" y="24" width="7" height="12"/>
    <rect x="439" y="24" width="7" height="12"/>
    <rect x="446" y="24" width="7" height="12"/>
    <rect x="453" y="24" width="7" height="12"/>
    <rect x="460" y="24" width="7" height="12"/>
    <rect x="467" y="24" width="7" height="12"/>
    <rect x="474" y="24" width="7" height="12"/>
    <rect x="481" y="24" width="7" height="12"/>
    <rect x="488" y="24" width="7" height="12"/>
    <rect x="495" y="24" width="7" height="12"/>
    <rect x="502" y="24" width="7" height="12"/>
    <rect x="509" y="24" width="7" height="12"/>
    <rect x="19" y="36" width="7" height="12"/>
    <rect x="26" y="36" width="7" height="12"/>
    <rect x="33" y="36" width="7" height="12"/>
    <rect x="75" y="36" width="7" height="12"/>
    <rect x="82" y="36" width="7" height="12"/>
    <rect x="89" y="36" width="7" height="12"/>
    <rect x="117" y="36" width="7" height="12"/>
    <rect x="124" y="36" width="7" height="12"/>
    <rect x="131" y="36" width="7" height="12"/>
    <rect x="138" y="36" width="7" height="12"/>
    <rect x="145" y="36" width="7" height="12"/>
    <rect x="152" y="36" width="7" height="12"/>
    <rect x="159" y="36" width="7" height="12"/>
    <rect x="166" y="36" width="7" height="12"/>
    <rect x="208" y="36" width="7" height="12"/>
    <rect x="215" y="36" width="7" height="12"/>
    <rect x="222" y="36" width="7" height="12"/>
    <rect x="229" y="36" width="7" height="12"/>
    <rect x="236" y="36" width="7" height="12"/>
    <rect x="243" y="36" width="7" height="12"/>
    <rect x="278" y="36" width="7" height="12"/>
    <rect x="285" y="36" width="7" height="12"/>
    <rect x="292" y="36" width="7" height="12"/>
    <rect x="299" y="36" width="7" height="12"/>
    <rect x="306" y="36" width="7" height="12"/>
    <rect x="334" y="36" width="7" height="12"/>
    <rect x="341" y="36" width="7" height="12"/>
    <rect x="348" y="36" width="7" height="12"/>
    <rect x="355" y="36" width="7" height="12"/>
    <rect x="362" y="36" width="7" height="12"/>
    <rect x="369" y="36" width="7" height="12"/>
    <rect x="376" y="36" width="7" height="12"/>
    <rect x="432" y="36" width="7" height="12"/>
    <rect x="439" y="36" width="7" height="12"/>
    <rect x="446" y="36" width="7" height="12"/>
    <rect x="453" y="36" width="7" height="12"/>
    <rect x="488" y="36" width="7" height="12"/>
    <rect x="495" y="36" width="7" height="12"/>
    <rect x="502" y="36" width="7" height="12"/>
    <rect x="509" y="36" width="7" height="12"/>
    <rect x="544" y="36" width="7" height="12"/>
    <rect x="551" y="36" width="7" height="12"/>
    <rect x="558" y="36" width="7" height="12"/>
    <rect x="565" y="36" width="7" height="12"/>
    <rect x="572" y="36" width="7" height="12"/>
    <rect x="12" y="48" width="7" height="12"/>
    <rect x="19" y="48" width="7" height="12"/>
    <rect x="26" y="48" width="7" height="12"/>
    <rect x="33" y="48" width="7" height="12"/>
    <rect x="117" y="48" width="7" height="12"/>
    <rect x="124" y="48" width="7" height="12"/>
    <rect x="131" y="48" width="7" height="12"/>
    <rect x="138" y="48" width="7" height="12"/>
    <rect x="145" y="48" width="7" height="12"/>
    <rect x="152" y="48" width="7" height="12"/>
    <rect x="159" y="48" width="7" height="12"/>
    <rect x="166" y="48" width="7" height="12"/>
    <rect x="173" y="48" width="7" height="12"/>
    <rect x="201" y="48" width="7" height="12"/>
    <rect x="208" y="48" width="7" height="12"/>
    <rect x="215" y="48" width="7" height="12"/>
    <rect x="222" y="48" width="7" height="12"/>
    <rect x="229" y="48" width="7" height="12"/>
    <rect x="236" y="48" width="7" height="12"/>
    <rect x="243" y="48" width="7" height="12"/>
    <rect x="250" y="48" width="7" height="12"/>
    <rect x="271" y="48" width="7" height="12"/>
    <rect x="278" y="48" width="7" height="12"/>
    <rect x="285" y="48" width="7" height="12"/>
    <rect x="292" y="48" width="7" height="12"/>
    <rect x="299" y="48" width="7" height="12"/>
    <rect x="327" y="48" width="7" height="12"/>
    <rect x="334" y="48" width="7" height="12"/>
    <rect x="341" y="48" width="7" height="12"/>
    <rect x="348" y="48" width="7" height="12"/>
    <rect x="355" y="48" width="7" height="12"/>
    <rect x="362" y="48" width="7" height="12"/>
    <rect x="369" y="48" width="7" height="12"/>
    <rect x="432" y="48" width="7" height="12"/>
    <rect x="439" y="48" width="7" height="12"/>
    <rect x="446" y="48" width="7" height="12"/>
    <rect x="453" y="48" width="7" height="12"/>
    <rect x="460" y="48" width="7" height="12"/>
    <rect x="467" y="48" width="7" height="12"/>
    <rect x="474" y="48" width="7" height="12"/>
    <rect x="481" y="48" width="7" height="12"/>
    <rect x="488" y="48" width="7" height="12"/>
    <rect x="495" y="48" width="7" height="12"/>
    <rect x="502" y="48" width="7" height="12"/>
    <rect x="537" y="48" width="7" height="12"/>
    <rect x="544" y="48" width="7" height="12"/>
    <rect x="551" y="48" width="7" height="12"/>
    <rect x="558" y="48" width="7" height="12"/>
    <rect x="565" y="48" width="7" height="12"/>
    <rect x="12" y="60" width="7" height="12"/>
    <rect x="19" y="60" width="7" height="12"/>
    <rect x="26" y="60" width="7" height="12"/>
    <rect x="33" y="60" width="7" height="12"/>
    <rect x="68" y="60" width="7" height="12"/>
    <rect x="75" y="60" width="7" height="12"/>
    <rect x="82" y="60" width="7" height="12"/>
    <rect x="89" y="60" width="7" height="12"/>
    <rect x="96" y="60" width="7" height="12"/>
    <rect x="117" y="60" width="7" height="12"/>
    <rect x="124" y="60" width="7" height="12"/>
    <rect x="131" y="60" width="7" height="12"/>
    <rect x="138" y="60" width="7" height="12"/>
    <rect x="152" y="60" width="7" height="12"/>
    <rect x="159" y="60" width="7" height="12"/>
    <rect x="166" y="60" width="7" height="12"/>
    <rect x="173" y="60" width="7" height="12"/>
    <rect x="194" y="60" width="7" height="12"/>
    <rect x="201" y="60" width="7" height="12"/>
    <rect x="208" y="60" width="7" height="12"/>
    <rect x="215" y="60" width="7" height="12"/>
    <rect x="229" y="60" width="7" height="12"/>
    <rect x="236" y="60" width="7" height="12"/>
    <rect x="243" y="60" width="7" height="12"/>
    <rect x="250" y="60" width="7" height="12"/>
    <rect x="264" y="60" width="7" height="12"/>
    <rect x="271" y="60" width="7" height="12"/>
    <rect x="278" y="60" width="7" height="12"/>
    <rect x="285" y="60" width="7" height="12"/>
    <rect x="292" y="60" width="7" height="12"/>
    <rect x="299" y="60" width="7" height="12"/>
    <rect x="306" y="60" width="7" height="12"/>
    <rect x="341" y="60" width="7" height="12"/>
    <rect x="348" y="60" width="7" height="12"/>
    <rect x="355" y="60" width="7" height="12"/>
    <rect x="362" y="60" width="7" height="12"/>
    <rect x="432" y="60" width="7" height="12"/>
    <rect x="439" y="60" width="7" height="12"/>
    <rect x="446" y="60" width="7" height="12"/>
    <rect x="453" y="60" width="7" height="12"/>
    <rect x="460" y="60" width="7" height="12"/>
    <rect x="467" y="60" width="7" height="12"/>
    <rect x="474" y="60" width="7" height="12"/>
    <rect x="481" y="60" width="7" height="12"/>
    <rect x="488" y="60" width="7" height="12"/>
    <rect x="495" y="60" width="7" height="12"/>
    <rect x="502" y="60" width="7" height="12"/>
    <rect x="509" y="60" width="7" height="12"/>
    <rect x="530" y="60" width="7" height="12"/>
    <rect x="537" y="60" width="7" height="12"/>
    <rect x="544" y="60" width="7" height="12"/>
    <rect x="551" y="60" width="7" height="12"/>
    <rect x="558" y="60" width="7" height="12"/>
    <rect x="565" y="60" width="7" height="12"/>
    <rect x="572" y="60" width="7" height="12"/>
    <rect x="12" y="72" width="7" height="12"/>
    <rect x="19" y="72" width="7" height="12"/>
    <rect x="26" y="72" width="7" height="12"/>
    <rect x="33" y="72" width="7" height="12"/>
    <rect x="40" y="72" width="7" height="12"/>
    <rect x="61" y="72" width="7" height="12"/>
    <rect x="68" y="72" width="7" height="12"/>
    <rect x="75" y="72" width="7" height="12"/>
    <rect x="82" y="72" width="7" height="12"/>
    <rect x="89" y="72" width="7" height="12"/>
    <rect x="117" y="72" width="7" height="12"/>
    <rect x="124" y="72" width="7" height="12"/>
    <rect x="131" y="72" width="7" height="12"/>
    <rect x="138" y="72" width="7" height="12"/>
    <rect x="152" y="72" width="7" height="12"/>
    <rect x="159" y="72" width="7" height="12"/>
    <rect x="166" y="72" width="7" height="12"/>
    <rect x="173" y="72" width="7" height="12"/>
    <rect x="194" y="72" width="7" height="12"/>
    <rect x="201" y="72" width="7" height="12"/>
    <rect x="208" y="72" width="7" height="12"/>
    <rect x="215" y="72" width="7" height="12"/>
    <rect x="229" y="72" width="7" height="12"/>
    <rect x="236" y="72" width="7" height="12"/>
    <rect x="243" y="72" width="7" height="12"/>
    <rect x="250" y="72" width="7" height="12"/>
    <rect x="271" y="72" width="7" height="12"/>
    <rect x="278" y="72" width="7" height="12"/>
    <rect x="285" y="72" width="7" height="12"/>
    <rect x="292" y="72" width="7" height="12"/>
    <rect x="299" y="72" width="7" height="12"/>
    <rect x="306" y="72" width="7" height="12"/>
    <rect x="313" y="72" width="7" height="12"/>
    <rect x="341" y="72" width="7" height="12"/>
    <rect x="348" y="72" width="7" height="12"/>
    <rect x="355" y="72" width="7" height="12"/>
    <rect x="362" y="72" width="7" height="12"/>
    <rect x="376" y="72" width="7" height="12"/>
    <rect x="383" y="72" width="7" height="12"/>
    <rect x="390" y="72" width="7" height="12"/>
    <rect x="432" y="72" width="7" height="12"/>
    <rect x="439" y="72" width="7" height="12"/>
    <rect x="446" y="72" width="7" height="12"/>
    <rect x="453" y="72" width="7" height="12"/>
    <rect x="488" y="72" width="7" height="12"/>
    <rect x="495" y="72" width="7" height="12"/>
    <rect x="502" y="72" width="7" height="12"/>
    <rect x="509" y="72" width="7" height="12"/>
    <rect x="537" y="72" width="7" height="12"/>
    <rect x="544" y="72" width="7" height="12"/>
    <rect x="551" y="72" width="7" height="12"/>
    <rect x="558" y="72" width="7" height="12"/>
    <rect x="565" y="72" width="7" height="12"/>
    <rect x="572" y="72" width="7" height="12"/>
    <rect x="579" y="72" width="7" height="12"/>
    <rect x="19" y="84" width="7" height="12"/>
    <rect x="26" y="84" width="7" height="12"/>
    <rect x="33" y="84" width="7" height="12"/>
    <rect x="40" y="84" width="7" height="12"/>
    <rect x="47" y="84" width="7" height="12"/>
    <rect x="54" y="84" width="7" height="12"/>
    <rect x="61" y="84" width="7" height="12"/>
    <rect x="68" y="84" width="7" height="12"/>
    <rect x="75" y="84" width="7" height="12"/>
    <rect x="82" y="84" width="7" height="12"/>
    <rect x="89" y="84" width="7" height="12"/>
    <rect x="117" y="84" width="7" height="12"/>
    <rect x="124" y="84" width="7" height="12"/>
    <rect x="131" y="84" width="7" height="12"/>
    <rect x="138" y="84" width="7" height="12"/>
    <rect x="152" y="84" width="7" height="12"/>
    <rect x="159" y="84" width="7" height="12"/>
    <rect x="166" y="84" width="7" height="12"/>
    <rect x="173" y="84" width="7" height="12"/>
    <rect x="180" y="84" width="7" height="12"/>
    <rect x="194" y="84" width="7" height="12"/>
    <rect x="201" y="84" width="7" height="12"/>
    <rect x="208" y="84" width="7" height="12"/>
    <rect x="215" y="84" width="7" height="12"/>
    <rect x="222" y="84" width="7" height="12"/>
    <rect x="229" y="84" width="7" height="12"/>
    <rect x="236" y="84" width="7" height="12"/>
    <rect x="243" y="84" width="7" height="12"/>
    <rect x="271" y="84" width="7" height="12"/>
    <rect x="278" y="84" width="7" height="12"/>
    <rect x="285" y="84" width="7" height="12"/>
    <rect x="292" y="84" width="7" height="12"/>
    <rect x="299" y="84" width="7" height="12"/>
    <rect x="306" y="84" width="7" height="12"/>
    <rect x="341" y="84" width="7" height="12"/>
    <rect x="348" y="84" width="7" height="12"/>
    <rect x="355" y="84" width="7" height="12"/>
    <rect x="362" y="84" width="7" height="12"/>
    <rect x="369" y="84" width="7" height="12"/>
    <rect x="376" y="84" width="7" height="12"/>
    <rect x="383" y="84" width="7" height="12"/>
    <rect x="432" y="84" width="7" height="12"/>
    <rect x="439" y="84" width="7" height="12"/>
    <rect x="446" y="84" width="7" height="12"/>
    <rect x="453" y="84" width="7" height="12"/>
    <rect x="460" y="84" width="7" height="12"/>
    <rect x="488" y="84" width="7" height="12"/>
    <rect x="495" y="84" width="7" height="12"/>
    <rect x="502" y="84" width="7" height="12"/>
    <rect x="509" y="84" width="7" height="12"/>
    <rect x="516" y="84" width="7" height="12"/>
    <rect x="537" y="84" width="7" height="12"/>
    <rect x="544" y="84" width="7" height="12"/>
    <rect x="551" y="84" width="7" height="12"/>
    <rect x="558" y="84" width="7" height="12"/>
    <rect x="565" y="84" width="7" height="12"/>
    <rect x="572" y="84" width="7" height="12"/>
    <rect x="26" y="96" width="7" height="12"/>
    <rect x="33" y="96" width="7" height="12"/>
    <rect x="40" y="96" width="7" height="12"/>
    <rect x="47" y="96" width="7" height="12"/>
    <rect x="54" y="96" width="7" height="12"/>
    <rect x="61" y="96" width="7" height="12"/>
    <rect x="68" y="96" width="7" height="12"/>
    <rect x="75" y="96" width="7" height="12"/>
    <rect x="82" y="96" width="7" height="12"/>
    <rect x="110" y="96" width="7" height="12"/>
    <rect x="117" y="96" width="7" height="12"/>
    <rect x="124" y="96" width="7" height="12"/>
    <rect x="131" y="96" width="7" height="12"/>
    <rect x="145" y="96" width="7" height="12"/>
    <rect x="152" y="96" width="7" height="12"/>
    <rect x="159" y="96" width="7" height="12"/>
    <rect x="166" y="96" width="7" height="12"/>
    <rect x="173" y="96" width="7" height="12"/>
    <rect x="201" y="96" width="7" height="12"/>
    <rect x="208" y="96" width="7" height="12"/>
    <rect x="215" y="96" width="7" height="12"/>
    <rect x="222" y="96" width="7" height="12"/>
    <rect x="229" y="96" width="7" height="12"/>
    <rect x="236" y="96" width="7" height="12"/>
    <rect x="264" y="96" width="7" height="12"/>
    <rect x="271" y="96" width="7" height="12"/>
    <rect x="278" y="96" width="7" height="12"/>
    <rect x="285" y="96" width="7" height="12"/>
    <rect x="292" y="96" width="7" height="12"/>
    <rect x="299" y="96" width="7" height="12"/>
    <rect x="348" y="96" width="7" height="12"/>
    <rect x="355" y="96" width="7" height="12"/>
    <rect x="362" y="96" width="7" height="12"/>
    <rect x="369" y="96" width="7" height="12"/>
    <rect x="376" y="96" width="7" height="12"/>
    <rect x="425" y="96" width="7" height="12"/>
    <rect x="432" y="96" width="7" height="12"/>
    <rect x="439" y="96" width="7" height="12"/>
    <rect x="446" y="96" width="7" height="12"/>
    <rect x="453" y="96" width="7" height="12"/>
    <rect x="481" y="96" width="7" height="12"/>
    <rect x="488" y="96" width="7" height="12"/>
    <rect x="495" y="96" width="7" height="12"/>
    <rect x="502" y="96" width="7" height="12"/>
    <rect x="509" y="96" width="7" height="12"/>
    <rect x="530" y="96" width="7" height="12"/>
    <rect x="537" y="96" width="7" height="12"/>
    <rect x="544" y="96" width="7" height="12"/>
    <rect x="551" y="96" width="7" height="12"/>
    <rect x="558" y="96" width="7" height="12"/>
    <rect x="565" y="96" width="7" height="12"/>
  </g>
  <g fill="url(#gs)">
    <rect x="47" y="24" width="7" height="12"/>
    <rect x="54" y="24" width="7" height="12"/>
    <rect x="61" y="24" width="7" height="12"/>
    <rect x="68" y="24" width="7" height="12"/>
    <rect x="75" y="24" width="7" height="12"/>
    <rect x="110" y="24" width="7" height="12"/>
    <rect x="117" y="24" width="7" height="12"/>
    <rect x="334" y="24" width="7" height="12"/>
    <rect x="341" y="24" width="7" height="12"/>
    <rect x="425" y="24" width="7" height="12"/>
    <rect x="432" y="24" width="7" height="12"/>
    <rect x="460" y="24" width="7" height="12"/>
    <rect x="467" y="24" width="7" height="12"/>
    <rect x="474" y="24" width="7" height="12"/>
    <rect x="481" y="24" width="7" height="12"/>
    <rect x="488" y="24" width="7" height="12"/>
    <rect x="75" y="36" width="7" height="12"/>
    <rect x="82" y="36" width="7" height="12"/>
    <rect x="89" y="36" width="7" height="12"/>
    <rect x="117" y="36" width="7" height="12"/>
    <rect x="432" y="36" width="7" height="12"/>
    <rect x="488" y="36" width="7" height="12"/>
    <rect x="12" y="48" width="7" height="12"/>
    <rect x="117" y="48" width="7" height="12"/>
    <rect x="145" y="48" width="7" height="12"/>
    <rect x="152" y="48" width="7" height="12"/>
    <rect x="222" y="48" width="7" height="12"/>
    <rect x="229" y="48" width="7" height="12"/>
    <rect x="292" y="48" width="7" height="12"/>
    <rect x="299" y="48" width="7" height="12"/>
    <rect x="327" y="48" width="7" height="12"/>
    <rect x="334" y="48" width="7" height="12"/>
    <rect x="341" y="48" width="7" height="12"/>
    <rect x="369" y="48" width="7" height="12"/>
    <rect x="432" y="48" width="7" height="12"/>
    <rect x="558" y="48" width="7" height="12"/>
    <rect x="565" y="48" width="7" height="12"/>
    <rect x="12" y="60" width="7" height="12"/>
    <rect x="117" y="60" width="7" height="12"/>
    <rect x="152" y="60" width="7" height="12"/>
    <rect x="194" y="60" width="7" height="12"/>
    <rect x="229" y="60" width="7" height="12"/>
    <rect x="264" y="60" width="7" height="12"/>
    <rect x="271" y="60" width="7" height="12"/>
    <rect x="341" y="60" width="7" height="12"/>
    <rect x="432" y="60" width="7" height="12"/>
    <rect x="460" y="60" width="7" height="12"/>
    <rect x="467" y="60" width="7" height="12"/>
    <rect x="474" y="60" width="7" height="12"/>
    <rect x="481" y="60" width="7" height="12"/>
    <rect x="488" y="60" width="7" height="12"/>
    <rect x="530" y="60" width="7" height="12"/>
    <rect x="537" y="60" width="7" height="12"/>
    <rect x="12" y="72" width="7" height="12"/>
    <rect x="19" y="72" width="7" height="12"/>
    <rect x="61" y="72" width="7" height="12"/>
    <rect x="68" y="72" width="7" height="12"/>
    <rect x="117" y="72" width="7" height="12"/>
    <rect x="152" y="72" width="7" height="12"/>
    <rect x="194" y="72" width="7" height="12"/>
    <rect x="229" y="72" width="7" height="12"/>
    <rect x="271" y="72" width="7" height="12"/>
    <rect x="278" y="72" width="7" height="12"/>
    <rect x="285" y="72" width="7" height="12"/>
    <rect x="292" y="72" width="7" height="12"/>
    <rect x="341" y="72" width="7" height="12"/>
    <rect x="432" y="72" width="7" height="12"/>
    <rect x="488" y="72" width="7" height="12"/>
    <rect x="537" y="72" width="7" height="12"/>
    <rect x="544" y="72" width="7" height="12"/>
    <rect x="551" y="72" width="7" height="12"/>
    <rect x="558" y="72" width="7" height="12"/>
    <rect x="19" y="84" width="7" height="12"/>
    <rect x="26" y="84" width="7" height="12"/>
    <rect x="194" y="84" width="7" height="12"/>
    <rect x="201" y="84" width="7" height="12"/>
    <rect x="341" y="84" width="7" height="12"/>
    <rect x="348" y="84" width="7" height="12"/>
    <rect x="26" y="96" width="7" height="12"/>
    <rect x="33" y="96" width="7" height="12"/>
    <rect x="40" y="96" width="7" height="12"/>
    <rect x="47" y="96" width="7" height="12"/>
    <rect x="54" y="96" width="7" height="12"/>
    <rect x="61" y="96" width="7" height="12"/>
    <rect x="68" y="96" width="7" height="12"/>
    <rect x="75" y="96" width="7" height="12"/>
    <rect x="82" y="96" width="7" height="12"/>
    <rect x="110" y="96" width="7" height="12"/>
    <rect x="117" y="96" width="7" height="12"/>
    <rect x="124" y="96" width="7" height="12"/>
    <rect x="131" y="96" width="7" height="12"/>
    <rect x="145" y="96" width="7" height="12"/>
    <rect x="152" y="96" width="7" height="12"/>
    <rect x="159" y="96" width="7" height="12"/>
    <rect x="166" y="96" width="7" height="12"/>
    <rect x="173" y="96" width="7" height="12"/>
    <rect x="201" y="96" width="7" height="12"/>
    <rect x="208" y="96" width="7" height="12"/>
    <rect x="215" y="96" width="7" height="12"/>
    <rect x="222" y="96" width="7" height="12"/>
    <rect x="229" y="96" width="7" height="12"/>
    <rect x="236" y="96" width="7" height="12"/>
    <rect x="264" y="96" width="7" height="12"/>
    <rect x="271" y="96" width="7" height="12"/>
    <rect x="278" y="96" width="7" height="12"/>
    <rect x="285" y="96" width="7" height="12"/>
    <rect x="292" y="96" width="7" height="12"/>
    <rect x="299" y="96" width="7" height="12"/>
    <rect x="348" y="96" width="7" height="12"/>
    <rect x="355" y="96" width="7" height="12"/>
    <rect x="362" y="96" width="7" height="12"/>
    <rect x="369" y="96" width="7" height="12"/>
    <rect x="376" y="96" width="7" height="12"/>
    <rect x="425" y="96" width="7" height="12"/>
    <rect x="432" y="96" width="7" height="12"/>
    <rect x="439" y="96" width="7" height="12"/>
    <rect x="446" y="96" width="7" height="12"/>
    <rect x="453" y="96" width="7" height="12"/>
    <rect x="481" y="96" width="7" height="12"/>
    <rect x="488" y="96" width="7" height="12"/>
    <rect x="495" y="96" width="7" height="12"/>
    <rect x="502" y="96" width="7" height="12"/>
    <rect x="509" y="96" width="7" height="12"/>
    <rect x="530" y="96" width="7" height="12"/>
    <rect x="537" y="96" width="7" height="12"/>
    <rect x="544" y="96" width="7" height="12"/>
    <rect x="551" y="96" width="7" height="12"/>
    <rect x="558" y="96" width="7" height="12"/>
    <rect x="565" y="96" width="7" height="12"/>
  </g>
</svg>
